<svg width="120" height="120" viewBox="0 0 120 120" fill="none" xmlns="http://www.w3.org/2000/svg">
<path d="M104.5 63.1599C104.5 87.6372 84.5877 107.5 60 107.5C35.4123 107.5 15.5 87.6372 15.5 63.1599C15.5 38.6826 35.4123 18.8199 60 18.8199C84.5877 18.8199 104.5 38.6826 104.5 63.1599Z" stroke="#1E375A" stroke-width="7"/>
<path d="M15.1306 30.92C19.3045 25.2 24.5219 20 29.7393 16.88" stroke="#E4E4E4" stroke-width="8" stroke-linecap="round"/>
<path d="M105.391 30.92C101.217 25.2 96.0001 20 90.7827 16.88" stroke="#E4E4E4" stroke-width="8" stroke-linecap="round"/>
<line x1="59.8259" y1="11" x2="59.8259" y2="15.48" stroke="#1E375A" stroke-width="8" stroke-linecap="round"/>
<path d="M38.4223 56.12H47.7823V58.6H41.6423V61.3H47.0423V63.82H41.6423V69H38.4223V56.12ZM49.0278 56.12H55.4678C56.9478 56.12 58.0545 56.5133 58.7878 57.3C59.5345 58.0733 59.9078 59.1533 59.9078 60.54C59.9078 61.4067 59.6878 62.1667 59.2478 62.82C58.8211 63.4733 58.2211 63.96 57.4478 64.28C57.6211 64.4267 57.7611 64.5867 57.8678 64.76C57.9878 64.9333 58.1211 65.1867 58.2678 65.52L59.7878 69H56.4278L54.9878 65.72C54.8678 65.4267 54.7145 65.22 54.5278 65.1C54.3411 64.98 54.0745 64.92 53.7278 64.92H52.2478V69H49.0278V56.12ZM54.6278 62.44C55.2678 62.44 55.7611 62.28 56.1078 61.96C56.4545 61.64 56.6278 61.1667 56.6278 60.54C56.6278 59.2467 56.0078 58.6 54.7678 58.6H52.2478V62.44H54.6278ZM61.5473 56.12H71.0473V58.6H64.7673V61.3H70.3073V63.82H64.7673V66.52H71.0473V69H61.5473V56.12ZM72.5825 56.12H82.0825V58.6H75.8025V61.3H81.3425V63.82H75.8025V66.52H82.0825V69H72.5825V56.12Z" fill="#69DFE7"/>
<path d="M60 30V34" stroke="#E4E4E4" stroke-width="4" stroke-linecap="round"/>
<path d="M60 90V94" stroke="#E4E4E4" stroke-width="4" stroke-linecap="round"/>
<path d="M92 62L88 62" stroke="#E4E4E4" stroke-width="4" stroke-linecap="round"/>
<path d="M32 62L28 62" stroke="#E4E4E4" stroke-width="4" stroke-linecap="round"/>
</svg>
