<svg width="103" height="103" viewBox="0 0 103 103" fill="none" xmlns="http://www.w3.org/2000/svg">
<path d="M38.4372 94.8347L38.4365 94.8345C35.9943 94.161 33.6947 94.3893 31.4622 95.4227L31.4409 95.4326C28.6059 96.7681 25.7346 97.9987 22.7972 99.2574L22.7785 99.2655C22.3065 99.471 21.9919 99.5037 21.8331 99.4994C21.7543 99.4973 21.7086 99.4863 21.6886 99.4803C21.6693 99.4744 21.6627 99.4699 21.6614 99.469C21.66 99.4681 21.6497 99.4615 21.6314 99.4402C21.6125 99.4181 21.5784 99.3724 21.5391 99.2905C21.4597 99.1249 21.3561 98.8019 21.3444 98.2708L21.3443 98.2684C21.3203 97.2116 21.2751 96.2682 21.2324 95.377C21.1618 93.9038 21.098 92.5728 21.148 91.1064L21.1487 91.0817C21.24 87.7043 19.6991 85.3778 17.7685 83.5949C12.5475 78.7625 8.71155 72.969 6.33726 66.2616C-2.89437 40.0824 10.8359 10.966 40.5623 4.77311C56.4795 1.45879 70.9896 4.52553 83.5718 14.9695C92.4217 22.3219 97.479 31.879 99.0147 43.3818C100.56 55.0407 98.4649 65.8004 92.034 75.5352L92.0332 75.5364C84.5027 86.9463 73.7349 93.4271 60.2038 95.7342L60.2017 95.7346C58.0678 96.0998 55.9952 96.2573 54.2518 96.3898C53.6829 96.433 53.1491 96.4736 52.6597 96.5178C46.8085 96.4028 42.532 95.965 38.4372 94.8347Z" stroke="#1E375A" stroke-width="7" stroke-miterlimit="10" stroke-linejoin="round"/>
<path d="M38.4372 94.8347L38.4365 94.8345C35.9943 94.161 33.6947 94.3893 31.4622 95.4227L31.4409 95.4326C28.6059 96.7681 25.7346 97.9987 22.7972 99.2574L22.7785 99.2655C22.3065 99.471 21.9919 99.5037 21.8331 99.4994C21.7543 99.4973 21.7086 99.4863 21.6886 99.4803C21.6693 99.4744 21.6627 99.4699 21.6614 99.469C21.66 99.4681 21.6497 99.4615 21.6314 99.4402C21.6125 99.4181 21.5784 99.3724 21.5391 99.2905C21.4597 99.1249 21.3561 98.8019 21.3444 98.2708L21.3443 98.2684C21.3203 97.2116 21.2751 96.2682 21.2324 95.377C21.1618 93.9038 21.098 92.5728 21.148 91.1064L21.1487 91.0817C21.24 87.7043 19.6991 85.3778 17.7685 83.5949C12.5475 78.7625 8.71155 72.969 6.33726 66.2616C-2.89437 40.0824 10.8359 10.966 40.5623 4.77311C56.4795 1.45879 70.9896 4.52553 83.5718 14.9695C92.4217 22.3219 97.479 31.879 99.0147 43.3818C100.56 55.0407 98.4649 65.8004 92.034 75.5352L92.0332 75.5364C84.5027 86.9463 73.7349 93.4271 60.2038 95.7342L60.2017 95.7346C58.0678 96.0998 55.9952 96.2573 54.2518 96.3898C53.6829 96.433 53.1491 96.4736 52.6597 96.5178C46.8085 96.4028 42.532 95.965 38.4372 94.8347Z" stroke="#1E375A" stroke-width="7" stroke-miterlimit="10" stroke-linejoin="round"/>
<path d="M38.4372 94.8347L38.4365 94.8345C35.9943 94.161 33.6947 94.3893 31.4622 95.4227L31.4409 95.4326C28.6059 96.7681 25.7346 97.9987 22.7972 99.2574L22.7785 99.2655C22.3065 99.471 21.9919 99.5037 21.8331 99.4994C21.7543 99.4973 21.7086 99.4863 21.6886 99.4803C21.6693 99.4744 21.6627 99.4699 21.6614 99.469C21.66 99.4681 21.6497 99.4615 21.6314 99.4402C21.6125 99.4181 21.5784 99.3724 21.5391 99.2905C21.4597 99.1249 21.3561 98.8019 21.3444 98.2708L21.3443 98.2684C21.3203 97.2116 21.2751 96.2682 21.2324 95.377C21.1618 93.9038 21.098 92.5728 21.148 91.1064L21.1487 91.0817C21.24 87.7043 19.6991 85.3778 17.7685 83.5949C12.5475 78.7625 8.71155 72.969 6.33726 66.2616C-2.89437 40.0824 10.8359 10.966 40.5623 4.77311C56.4795 1.45879 70.9896 4.52553 83.5718 14.9695C92.4217 22.3219 97.479 31.879 99.0147 43.3818C100.56 55.0407 98.4649 65.8004 92.034 75.5352L92.0332 75.5364C84.5027 86.9463 73.7349 93.4271 60.2038 95.7342L60.2017 95.7346C58.0678 96.0998 55.9952 96.2573 54.2518 96.3898C53.6829 96.433 53.1491 96.4736 52.6597 96.5178C46.8085 96.4028 42.532 95.965 38.4372 94.8347Z" stroke="#1E375A" stroke-width="7" stroke-miterlimit="10" stroke-linejoin="round"/>
<circle cx="29.4287" cy="51.4997" r="7.35714" fill="#69DFE7"/>
<circle cx="51.5" cy="51.4997" r="7.35714" fill="#69DFE7"/>
<circle cx="73.5715" cy="51.4997" r="7.35714" fill="#69DFE7"/>
<path d="M18 65C22 72.1667 33.4 86.5 51 86.5" stroke="#E4E4E4" stroke-width="5" stroke-linecap="round"/>
</svg>
