<svg width="120" height="120" viewBox="0 0 120 120" fill="none" xmlns="http://www.w3.org/2000/svg">
<path d="M19.5 15.125C19.5 10.9138 22.9138 7.5 27.125 7.5H93.875C98.0862 7.5 101.5 10.9138 101.5 15.125V104.125C101.5 108.336 98.0862 111.75 93.875 111.75H27.125C22.9138 111.75 19.5 108.336 19.5 104.125V15.125Z" stroke="#1E375A" stroke-width="7"/>
<path d="M38.25 4H82.75V16.6875C82.75 18.8966 80.9591 20.6875 78.75 20.6875H42.25C40.0409 20.6875 38.25 18.8966 38.25 16.6875V4Z" fill="#E4E4E4"/>
<path fill-rule="evenodd" clip-rule="evenodd" d="M85.5452 47.4814C87.1826 49.1025 87.1959 51.7439 85.5749 53.3813L57.9021 81.3336C57.1211 82.1224 56.0579 82.5675 54.9479 82.5703C53.8378 82.5731 52.7724 82.1334 51.9874 81.3484L41.5577 70.9187C39.9285 69.2895 39.9285 66.648 41.5577 65.0188C43.1869 63.3896 45.8284 63.3896 47.4576 65.0188L54.9225 72.4837L79.6454 47.5111C81.2664 45.8737 83.9078 45.8604 85.5452 47.4814Z" fill="#69DFE7"/>
</svg>
