<svg width="112" height="77" viewBox="0 0 112 77" fill="none" xmlns="http://www.w3.org/2000/svg">
<path d="M11.5 8C11.5 5.51472 13.5147 3.5 16 3.5H96C98.4853 3.5 100.5 5.51472 100.5 8V68.5H11.5V8Z" stroke="#1E375A" stroke-width="7"/>
<path d="M112 73C112 75.2091 110.209 77 108 77L4 77C1.79086 77 1.56562e-07 75.2091 3.49691e-07 73L8.74228e-07 67C9.70792e-07 65.8954 0.895433 65 2 65L109 65C110.657 65 112 66.3431 112 68L112 73Z" fill="#E4E4E4"/>
<line x1="48" y1="14" x2="58" y2="14" stroke="#69DFE7" stroke-width="4" stroke-linecap="round"/>
<circle cx="63" cy="14" r="2" fill="#69DFE7"/>
</svg>
