<svg width="28" height="28" viewBox="0 0 28 28" fill="none" xmlns="http://www.w3.org/2000/svg">
<path d="M13.9951 16.8245C13.8545 16.9556 13.7327 17.0681 13.6108 17.1898C10.2456 20.5528 6.87094 23.9252 3.50569 27.2882C2.52143 28.2718 1.22782 28.225 0.42166 27.1852C-0.150151 26.4545 -0.140777 25.4896 0.440408 24.7683C0.581017 24.5997 0.731001 24.4498 0.890358 24.2905C4.18999 20.9931 7.49899 17.6863 10.7986 14.3889C10.9205 14.2671 11.0798 14.1922 11.2486 14.0798C11.0423 13.8549 10.9299 13.7332 10.808 13.6114C7.44275 10.2484 4.0775 6.88538 0.702879 3.51302C-0.168899 2.63246 -0.234517 1.50833 0.524774 0.67461C1.32156 -0.187217 2.5308 -0.234055 3.40258 0.599669C4.46183 1.62075 5.48359 2.66993 6.5241 3.70974C8.88634 6.07039 11.2486 8.43105 13.6202 10.7917C13.742 10.9135 13.8639 11.0259 14.1076 11.2507C14.2201 11.0727 14.3045 10.8854 14.4357 10.7542C17.7728 7.41934 21.1193 4.06571 24.4658 0.730816C25.3283 -0.131011 26.3875 -0.224687 27.2312 0.459153C28.1404 1.1992 28.2529 2.43573 27.4843 3.3163C27.3624 3.45681 27.2218 3.58796 27.0906 3.71911C23.8097 6.9978 20.5288 10.2765 17.2479 13.5552C17.1167 13.6863 16.9479 13.78 16.7605 13.9205C16.9667 14.136 17.0885 14.2671 17.2104 14.3983C20.5382 17.7238 23.8659 21.04 27.1749 24.3748C27.5124 24.7121 27.8124 25.1711 27.9342 25.6207C28.1686 26.4732 27.6999 27.3163 26.9218 27.7378C26.1344 28.1594 25.2814 28.047 24.5971 27.3912C23.6316 26.4545 22.6942 25.499 21.7474 24.5528C19.2633 22.0704 16.7792 19.588 14.2951 17.1055C14.2107 17.0025 14.117 16.9275 13.9951 16.8245Z" fill="#1E375A"/>
</svg>
