<svg width="36" height="26" viewBox="0 0 36 26" fill="none" xmlns="http://www.w3.org/2000/svg">
<path d="M17.9836 10.8255C13.2621 10.8255 8.54059 10.8255 3.81911 10.8255C3.10246 10.8255 2.38581 10.8087 1.66915 10.834C0.783877 10.8677 0.084086 11.5506 0.00820506 12.4359C-0.0761071 13.338 0.497215 14.1727 1.36563 14.3582C1.63543 14.4172 1.92209 14.4088 2.20875 14.4088C12.7309 14.4088 23.2531 14.4088 33.7836 14.4088C33.9691 14.4088 34.1462 14.4088 34.3317 14.3919C35.1832 14.3329 35.8577 13.709 35.9589 12.8912C36.0769 11.9806 35.6132 11.1797 34.7532 10.9183C34.4919 10.834 34.1968 10.8255 33.927 10.8255C28.6069 10.8255 23.2952 10.8255 17.9836 10.8255ZM23.3374 3.59157C23.8179 3.59157 24.2901 3.59157 24.7707 3.59157C27.9324 3.59157 31.0941 3.6 34.2558 3.58314C35.1158 3.58314 35.8324 2.93393 35.9505 2.10767C36.0854 1.18867 35.5964 0.362412 34.7279 0.101044C34.4497 0.016732 34.1462 0.00830078 33.8511 0.00830078C26.8785 0.00830078 19.889 0.00830078 12.908 0.00830078C12.6803 0.00830078 12.4611 0.016732 12.2335 0.0504568C11.5252 0.160063 10.9266 0.775541 10.817 1.48376C10.6315 2.67256 11.4325 3.59157 12.6719 3.6C16.2299 3.6 19.7878 3.59157 23.3374 3.59157ZM26.9881 21.6259C26.9881 21.6259 26.9881 21.6344 26.9881 21.6259C24.5599 21.6259 22.1317 21.6175 19.7035 21.6344C18.9363 21.6344 18.3124 22.1402 18.0763 22.8738C17.8486 23.5735 18.0763 24.3408 18.6496 24.8129C19.0543 25.1502 19.5265 25.2176 20.0323 25.2176C24.6695 25.2176 29.2982 25.2176 33.9354 25.2176C34.104 25.2176 34.2727 25.2092 34.4413 25.1923C34.9472 25.1417 35.3434 24.8972 35.6385 24.4925C36.0516 23.9192 36.1107 23.2953 35.8156 22.663C35.512 22.0138 34.9724 21.6512 34.2474 21.6428C31.8192 21.6259 29.3994 21.6259 26.9881 21.6259Z" fill="white"/>
<path d="M17.9836 10.8253C23.2952 10.8253 28.6069 10.8253 33.9185 10.8253C34.1968 10.8253 34.4834 10.8338 34.7448 10.9181C35.5964 11.1794 36.0685 11.9804 35.9505 12.891C35.8409 13.7004 35.1664 14.3243 34.3232 14.3917C34.1378 14.4086 33.9607 14.4086 33.7752 14.4086C23.2531 14.4086 12.7309 14.4086 2.20032 14.4086C1.92209 14.4086 1.63543 14.417 1.3572 14.358C0.497218 14.1725 -0.0761047 13.3378 0.0082074 12.4357C0.0925195 11.5504 0.783879 10.8675 1.66916 10.8338C2.38581 10.8085 3.10246 10.8253 3.81912 10.8253C8.5406 10.8253 13.2621 10.8253 17.9836 10.8253Z" fill="#1E375A"/>
<path d="M23.3374 3.5917C19.7794 3.5917 16.2299 3.60013 12.6719 3.5917C11.4325 3.5917 10.6316 2.66426 10.817 1.47546C10.9266 0.76724 11.5337 0.151762 12.2335 0.0421561C12.4527 0.00843121 12.6803 0 12.908 0C19.889 0 26.8701 0 33.8595 0C34.1546 0 34.4582 0.00843121 34.7364 0.0927433C35.5964 0.34568 36.0854 1.18037 35.9505 2.09937C35.8324 2.92563 35.1242 3.57483 34.2558 3.57483C31.0941 3.5917 27.9324 3.58327 24.7707 3.58327C24.2985 3.5917 23.818 3.5917 23.3374 3.5917Z" fill="#1E375A"/>
<path d="M26.9881 21.6261C29.3994 21.6261 31.8192 21.6177 34.2305 21.6261C34.9556 21.6261 35.4952 21.9971 35.7987 22.6463C36.0938 23.2786 36.0348 23.9025 35.6217 24.4759C35.3266 24.8806 34.9303 25.1251 34.4244 25.1756C34.2558 25.1925 34.0872 25.2009 33.9186 25.2009C29.2814 25.2009 24.6527 25.2009 20.0155 25.2009C19.5096 25.2009 19.0375 25.1251 18.6328 24.7962C18.0595 24.3241 17.8318 23.5653 18.0595 22.8571C18.2955 22.1235 18.9194 21.6261 19.6867 21.6177C22.1317 21.6261 24.5599 21.6345 26.9881 21.6261C26.9881 21.6345 26.9881 21.6261 26.9881 21.6261Z" fill="#1E375A"/>
</svg>
